{"accessors":[{"bufferView":0,"componentType":5125,"count":117954,"max":[115911],"min":[0],"type":"SCALAR"},{"bufferView":1,"componentType":5126,"count":115912,"max":[0.44214385747909546,1.59614896774292,1.1186823844909668],"min":[-0.4432731866836548,-1.0605932474136353,-1.2101434469223022],"type":"VEC3"},{"bufferView":2,"componentType":5126,"count":115912,"max":[0.9999697804450989,0.9998999238014221,0.9999943375587463],"min":[-0.9999890923500061,-0.9999664425849915,-0.9999383091926575],"type":"VEC3"},{"bufferView":3,"componentType":5126,"count":115912,"max":[0.9782193303108215,0.9865649938583374],"min":[0.013342136517167091,0.013434886932373047],"type":"VEC2"},{"bufferView":4,"componentType":5123,"count":115912,"max":[33,33,30,30],"min":[0,0,0,0],"type":"VEC4"},{"bufferView":5,"componentType":5126,"count":115912,"max":[1.038129210472107,0.9749478697776794,0.9248425960540771,0.8880772590637207],"min":[8.955597877502441e-06,0.0,0.0,0.0],"type":"VEC4"},{"bufferView":6,"componentType":5123,"count":115912,"max":[30,30,30,30],"min":[0,0,0,0],"type":"VEC4"},{"bufferView":7,"componentType":5126,"count":115912,"max":[0.8617811799049377,0.7342143058776855,0.5219833850860596,0.22636651992797852],"min":[0.0,0.0,0.0,0.0],"type":"VEC4"},{"bufferView":8,"componentType":5123,"count":115912,"max":[30,0,0,0],"min":[0,0,0,0],"type":"VEC4"},{"bufferView":9,"componentType":5126,"count":115912,"max":[0.03334967419505119,0.0,0.0,0.0],"min":[0.0,0.0,0.0,0.0],"type":"VEC4"},{"bufferView":10,"componentType":5121,"count":6,"max":[3],"min":[0],"type":"SCALAR"},{"bufferView":11,"componentType":5126,"count":4,"max":[1.0,0.0,1.0],"min":[-1.0,0.0,-1.0],"type":"VEC3"},{"bufferView":12,"componentType":5126,"count":4,"max":[0.0,1.0,-0.0],"min":[0.0,1.0,-0.0],"type":"VEC3"},{"bufferView":13,"componentType":5126,"count":4,"max":[1.0,1.0],"min":[0.0,0.0],"type":"VEC2"},{"bufferView":14,"componentType":5126,"count":35,"max":[0.5572311878204346,0.447810560464859,0.19294504821300507,0.0,0.1963185966014862,0.6079878211021423,0.6458069682121277,0.0,0.474330872297287,0.5232749581336975,0.42086368799209595,0.0,0.3934054970741272,0.6773107647895813,0.48417896032333374,1.0],"min":[-0.5572312474250793,-0.4478105902671814,-0.19294504821300507,0.0,-0.1963185966014862,-0.6648125052452087,-0.6262050271034241,0.0,-0.474330872297287,-0.5402172207832336,-0.5552746653556824,0.0,-0.40655192732810974,-0.6628761887550354,-0.5110834836959839,1.0],"type":"MAT4"},{"bufferView":15,"componentType":5126,"count":1,"max":[0.8333333333333334],"min":[0.8333333333333334],"type":"SCALAR"},{"bufferView":16,"componentType":5126,"count":1,"max":[0.800000011920929,0.800000011920929,0.800000011920929,1.0],"min":[0.800000011920929,0.800000011920929,0.800000011920929,1.0],"type":"VEC4"}],"animations":[{"channels":[{"sampler":0,"target":{"extras":{"material":0},"node":3,"path":"material.nodeRGB[\"Principled BSDF\"]"}}],"extensions":{"S8S_v3d_animation_data":{"auto":true,"loop":"REPEAT","offset":0.0,"repeatCount":1.0,"repeatInfinite":true}},"name":"Plane","samplers":[{"input":15,"interpolation":"LINEAR","output":16}]}],"asset":{"generator":"Soft8Soft Verge3D for Blender add-on","version":"2.0"},"bufferViews":[{"buffer":0,"byteLength":471816,"byteOffset":0,"target":34963},{"buffer":0,"byteLength":1390944,"byteOffset":471816,"target":34962},{"buffer":0,"byteLength":1390944,"byteOffset":1862760,"target":34962},{"buffer":0,"byteLength":927296,"byteOffset":3253704,"target":34962},{"buffer":0,"byteLength":927296,"byteOffset":4181000,"target":34962},{"buffer":0,"byteLength":1854592,"byteOffset":5108296,"target":34962},{"buffer":0,"byteLength":927296,"byteOffset":6962888,"target":34962},{"buffer":0,"byteLength":1854592,"byteOffset":7890184,"target":34962},{"buffer":0,"byteLength":927296,"byteOffset":9744776,"target":34962},{"buffer":0,"byteLength":1854592,"byteOffset":10672072,"target":34962},{"buffer":0,"byteLength":6,"byteOffset":12526664,"target":34963},{"buffer":0,"byteLength":48,"byteOffset":12526672,"target":34962},{"buffer":0,"byteLength":48,"byteOffset":12526720,"target":34962},{"buffer":0,"byteLength":32,"byteOffset":12526768,"target":34962},{"buffer":0,"byteLength":2240,"byteOffset":12526800},{"buffer":0,"byteLength":4,"byteOffset":12529040},{"buffer":0,"byteLength":16,"byteOffset":12529044}],"buffers":[{"byteLength":12529060,"uri":"anastasia_blender.bin"}],"cameras":[{"extensions":{"S8S_v3d_camera_data":{"controls":"ORBIT","enablePan":true,"moveSpeed":1.0,"orbitMaxDistance":100.0,"orbitMaxPolarAngle":3.1415927410125732,"orbitMaxZoom":100.0,"orbitMinDistance":0.0,"orbitMinPolarAngle":0.0,"orbitMinZoom":0.009999999776482582,"orbitTarget":[0.0,0.0,-0.0],"rotateSpeed":1.0,"viewportFitInitialAspect":1.7777777777777777,"viewportFitType":"AUTO"}},"name":"Camera","perspective":{"aspectRatio":1.7777777777777777,"yfov":0.39959652046304894,"zfar":100.0,"znear":0.10000000149011612},"type":"perspective"}],"extensions":{"S8S_v3d_data":{"lights":[{"color":[1.0,1.0,1.0],"decay":2,"distance":31.622776955095866,"intensity":1000.0,"name":"Light","profile":"blender","shadow":{"bias":-0.0018,"cameraFar":31.622776955095866,"cameraFov":0,"cameraNear":0.05000000074505806,"enabled":true,"expBias":2.5,"mapSize":512,"radius":1.0,"slopeScaledBias":2.5},"type":"point"}]}},"extensionsUsed":["S8S_v3d_texture_data","S8S_v3d_material_data","S8S_v3d_camera_data","S8S_v3d_data","S8S_v3d_mesh_data","S8S_v3d_node_data","S8S_v3d_animation_data","S8S_v3d_scene_data"],"images":[{"uri":"TachitaColor.003.png"}],"materials":[{"extensions":{"S8S_v3d_material_data":{"gtaoVisible":true,"materialIndex":0,"nodeGraph":{"edges":[{"fromNode":1,"fromOutput":0,"toInput":0,"toNode":0},{"fromNode":5,"fromOutput":0,"toInput":0,"toNode":1},{"fromNode":2,"fromOutput":0,"toInput":0,"toNode":5},{"fromNode":4,"fromOutput":0,"toInput":0,"toNode":2},{"fromNode":3,"fromOutput":3,"toInput":0,"toNode":4},{"fromNode":6,"fromOutput":0,"toInput":22,"toNode":1},{"fromNode":2,"fromOutput":0,"toInput":2,"toNode":6}],"nodes":[{"inputs":[[0,0,0,0],[0,0,0,0],[0.0,0.0,0.0]],"is_active_output":true,"name":"Material Output","outputs":[],"type":"OUTPUT_MATERIAL_BL"},{"inputs":[[0.800000011920929,0.800000011920929,0.800000011920929,1.0],0.0,[1.0,0.20000000298023224,0.10000000149011612],[0.800000011920929,0.800000011920929,0.800000011920929,1.0],1.399999976158142,0.0,0.0,0.5,0.0,0.5,0.0,0.0,0.0,0.5,0.0,0.029999999329447746,1.4500000476837158,0.0,0.0,[0.0,0.0,0.0,1.0],1.0,1.0,[0.0,0.0,0.0],[0.0,0.0,0.0],[0.0,0.0,0.0]],"is_active_output":false,"name":"Principled BSDF","outputs":[[0,0,0,0]],"type":"BSDF_PRINCIPLED_BL"},{"dispersionFactor":1.0,"falloffFactor":0.0,"inputs":[[0.0,0.0,0.0],0.0,1.600000023841858,16.0,0.75,0.699999988079071],"is_active_output":false,"name":"Noise Texture","outputs":[0.0,[0.0,0.0,0.0,0.0]],"type":"TEX_NOISE_BL"},{"inputs":[],"is_active_output":false,"name":"Texture Coordinate","object":-1,"outputs":[[0.0,0.0,0.0],[0.0,0.0,0.0],[0.0,0.0,0.0],[0.0,0.0,0.0],[0.0,0.0,0.0],[0.0,0.0,0.0],[0.0,0.0,0.0]],"type":"TEX_COORD_BL"},{"inputs":[[0.0,0.0,0.0],[0.0,0.0,0.0],[0.0,0.0,0.0],[9.0,1.0,1.0]],"is_active_output":false,"name":"Mapping","outputs":[[0.0,0.0,0.0]],"type":"MAPPING_BL","vectorType":"POINT"},{"curve":{"input":[0.0,0.6136367321014404],"interpolation":"LINEAR","output":[0.6938720345497131,0.31398874521255493,0.11443542689085007,1.0,0.26225075125694275,0.09305892884731293,0.019382372498512268,1.0]},"inputs":[0.5],"is_active_output":false,"name":"ColorRamp","outputs":[[0.0,0.0,0.0,0.0],0.0],"type":"VALTORGB_BL"},{"inputs":[0.7000000476837158,1.0,1.0,1.0,1.0,[0.0,0.0,0.0]],"invert":false,"is_active_output":false,"name":"Bump","outputs":[[0.0,0.0,0.0]],"type":"BUMP_BL"}]},"useCastShadows":true}},"name":"Floor"},{"extensions":{"S8S_v3d_material_data":{"gtaoVisible":true,"materialIndex":0,"nodeGraph":{"edges":[{"fromNode":1,"fromOutput":0,"toInput":0,"toNode":0},{"fromNode":2,"fromOutput":0,"toInput":0,"toNode":1}],"nodes":[{"inputs":[[0,0,0,0],[0,0,0,0],[0.0,0.0,0.0]],"is_active_output":true,"name":"Material Output","outputs":[],"type":"OUTPUT_MATERIAL_BL"},{"inputs":[[0.800000011920929,0.800000011920929,0.800000011920929,1.0],0.0,[1.0,0.20000000298023224,0.10000000149011612],[0.800000011920929,0.800000011920929,0.800000011920929,1.0],1.399999976158142,0.0,0.0,0.5,0.0,0.5,0.0,0.0,0.0,0.5,0.0,0.029999999329447746,1.4500000476837158,0.0,0.0,[0.0,0.0,0.0,1.0],1.0,1.0,[0.0,0.0,0.0],[0.0,0.0,0.0],[0.0,0.0,0.0]],"is_active_output":false,"name":"Principled BSDF","outputs":[[0,0,0,0]],"type":"BSDF_PRINCIPLED_BL"},{"inputs":[[0.0,0.0,0.0]],"is_active_output":false,"name":"Image Texture","outputs":[[0.0,0.0,0.0,0.0],0.0],"projection":"FLAT","projectionBlend":0.0,"texture":0,"type":"TEX_IMAGE_BL"}]},"useCastShadows":true}},"name":"Tachita"},{"extensions":{"S8S_v3d_material_data":{"gtaoVisible":true,"materialIndex":0,"nodeGraph":{"edges":[{"fromNode":1,"fromOutput":0,"toInput":0,"toNode":0}],"nodes":[{"inputs":[[0,0,0,0],[0,0,0,0]],"is_active_output":true,"name":"World Output","outputs":[],"type":"OUTPUT_WORLD_BL"},{"inputs":[[0.05087608844041824,0.05087608844041824,0.05087608844041824,1.0],1.0],"is_active_output":false,"name":"Background","outputs":[[0,0,0,0]],"type":"BACKGROUND_BL"}]},"useCastShadows":true}},"name":"Verge3D_Environment_World"}],"meshes":[{"extensions":{"S8S_v3d_mesh_data":{"colorLayers":{},"uvLayers":{"UVMap":"TEXCOORD_0"}}},"name":"Cylinder.001","primitives":[{"attributes":{"JOINTS_0":4,"JOINTS_1":6,"JOINTS_2":8,"NORMAL":2,"POSITION":1,"TEXCOORD_0":3,"WEIGHTS_0":5,"WEIGHTS_1":7,"WEIGHTS_2":9},"indices":0,"material":1,"mode":4}]},{"extensions":{"S8S_v3d_mesh_data":{"colorLayers":{},"uvLayers":{"UVMap":"TEXCOORD_0"}}},"name":"Plane","primitives":[{"attributes":{"NORMAL":12,"POSITION":11,"TEXCOORD_0":13},"indices":10,"material":0,"mode":4}]}],"nodes":[{"extensions":{"S8S_v3d_node_data":{"frustumCulling":true,"groupNames":["Collection"],"hidden":false,"hidpiCompositing":false,"light":0,"objectColor":[0.0,0.0,0.0],"objectIndex":0,"renderOrder":0}},"name":"Light","rotation":[-0.2841663062572479,0.7269423604011536,0.34203389286994934,0.5232754945755005],"scale":[0.9999999403953552,0.9999997019767761,0.9999999403953552],"translation":[4.076245307922363,7.276902675628662,-1.0054539442062378]},{"camera":0,"extensions":{"S8S_v3d_node_data":{"frustumCulling":true,"groupNames":["Collection"],"hidden":false,"hidpiCompositing":false,"objectColor":[0.0,0.0,0.0],"objectIndex":0,"renderOrder":0}},"name":"Camera","rotation":[-0.17860837280750275,0.3453775644302368,0.06713460385799408,0.918861448764801],"scale":[0.9999999403953552,1.0,0.9999999403953552],"translation":[6.283031463623047,4.755509376525879,5.8796281814575195]},{"children":[5,6],"extensions":{"S8S_v3d_node_data":{"frustumCulling":true,"groupNames":["Collection"],"hidden":false,"hidpiCompositing":false,"objectColor":[1.0,1.0,1.0],"objectIndex":0,"renderOrder":0}},"name":"metarig","scale":[1.7945873737335205,1.7945873737335205,1.7945873737335205],"translation":[-0.022700458765029907,-0.14113128185272217,-1.1358435153961182]},{"extensions":{"S8S_v3d_node_data":{"frustumCulling":true,"groupNames":["Collection"],"hidden":false,"hidpiCompositing":false,"objectColor":[1.0,1.0,1.0],"objectIndex":0,"renderOrder":0,"useShadows":true}},"mesh":1,"name":"Plane","rotation":[1.0,-0.0,0.0,0.0],"scale":[-5.107490539550781,-1.0,-4.052896976470947],"translation":[-0.004243701696395874,-0.018588818609714508,-0.690885066986084]},{"extensions":{"S8S_v3d_node_data":{"frustumCulling":true,"groupNames":["Collection"],"hidden":false,"hidpiCompositing":false,"objectColor":[1.0,1.0,1.0],"objectIndex":0,"renderOrder":0,"useShadows":true}},"mesh":0,"name":"Cylinder.001","rotation":[0.3498023748397827,0.0,-0.0,0.9368235468864441],"scale":[1.0,1.196703553199768,1.0],"skin":0,"translation":[0.0,0.923662543296814,-0.9517483711242676]},{"children":[4],"name":"v3d_Proxy_Node_0_Cylinder.001","scale":[0.5572311878204346,0.5572311878204346,0.5572311878204346],"translation":[0.012649403885006905,0.04667530581355095,0.632927417755127]},{"children":[7,11],"name":"metarig_spine.004","rotation":[0.0,0.9999287128448486,0.011942090466618538,0.0],"translation":[0.03741363435983658,0.8597066402435303,-0.40849998593330383]},{"children":[8],"name":"metarig_spine.003","rotation":[-4.37005169828808e-08,0.9997512698173523,0.02230321615934372,9.749052676255587e-10],"scale":[1.0,1.0000003576278687,1.0000001192092896]},{"children":[9],"name":"metarig_spine.002","rotation":[0.06570163369178772,-0.03596607595682144,-0.0015516821295022964,0.9971898198127747],"scale":[1.0,0.9999998807907104,0.9999999403953552],"translation":[-1.5379638633185007e-15,-5.960464477539063e-08,-0.1342032551765442]},{"children":[10],"name":"metarig_spine.001","rotation":[0.274939626455307,0.012318037450313568,-0.01675320230424404,0.9612365961074829],"scale":[0.9999998807907104,1.0,1.0],"translation":[-1.862645149230957e-09,6.134087016107515e-08,-0.12239592522382736]},{"name":"metarig_spine","rotation":[0.20300988852977753,0.01305531244724989,-0.006919561885297298,0.9790652394294739],"scale":[1.0,1.0,0.9999998807907104],"translation":[2.7939677238464355e-09,-3.872082743328065e-08,-0.12067096680402756]},{"children":[12,30,31,32,36],"name":"metarig_spine.005","rotation":[-2.773592022720095e-09,-0.06345237791538239,-0.9979848861694336,4.362330585649943e-08],"translation":[0.0,0.0,-0.16689997911453247]},{"children":[13],"name":"metarig_spine.006","rotation":[7.566626769595075e-10,0.06345237046480179,0.9979848861694336,7.534576695888973e-08],"translation":[-5.218048215738236e-15,5.587935447692871e-09,-0.12238550931215286]},{"children":[14],"name":"metarig_spine.007","rotation":[9.441188941750056e-10,0.07917217910289764,-0.9968610405921936,7.526091394538525e-08],"scale":[1.0,1.0,0.9999997019767761],"translation":[3.561807848038697e-15,-5.97476983443812e-08,-0.11060000211000443]},{"children":[15,18,23,28,29],"name":"metarig_spine.008","rotation":[-0.0015354659408330917,6.711618760757432e-11,-4.3711192887485595e-08,0.9999988079071045],"translation":[-2.177722977940227e-15,-4.563480615615845e-08,-0.10896603018045425]},{"children":[16],"name":"metarig_spine.009","rotation":[-0.6264128684997559,9.365327523908062e-14,-1.1601913277748538e-13,0.7794914841651917],"scale":[1.0,0.9999998807907104,0.9999998807907104],"translation":[2.1691984383590598e-20,-1.862645149230957e-08,-0.2672816216945648]},{"children":[17],"name":"metarig_spine.010","rotation":[0.15363267064094543,3.6628893695933584e-08,-2.35588188957081e-07,0.9881280660629272],"scale":[1.0,0.9999999403953552,1.0],"translation":[-6.617444900424222e-24,0.0,-0.13344481587409973]},{"name":"metarig_spine.011","rotation":[0.5219091773033142,1.119925968851021e-06,-1.4236483139029588e-06,0.8530011773109436],"translation":[-1.0606933024300534e-16,2.9103830456733704e-11,-0.33615976572036743]},{"children":[19],"name":"metarig_shoulder.L","rotation":[0.5096712112426758,-0.09138135612010956,-0.19013553857803345,0.8341062068939209],"scale":[0.9999999403953552,0.9999998807907104,0.9999999403953552],"translation":[0.05959999933838844,-0.06617884337902069,-0.17269638180732727]},{"children":[20],"name":"metarig_front_thigh.L","rotation":[0.3107178807258606,0.21606680750846863,0.05548691749572754,0.9239538908004761],"scale":[1.0,1.0,1.0000001192092896],"translation":[0.05435819923877716,0.04041649401187897,-0.20335926115512848]},{"children":[21],"name":"metarig_front_shin.L","rotation":[-0.09068069607019424,-0.024959178641438484,0.0228764396160841,0.9953043460845947],"scale":[0.9999999403953552,0.9999998807907104,0.9999997615814209],"translation":[5.180481821298599e-09,-5.951733328402042e-09,-0.255054235458374]},{"children":[22],"name":"metarig_front_foot.L","rotation":[-0.015014470554888248,-0.04551149532198906,-0.043707411736249924,0.997894287109375],"scale":[0.9999999403953552,1.0,1.0],"translation":[-8.847564458847046e-09,-3.725290298461914e-08,-0.18653669953346252]},{"name":"metarig_front_toe.L","rotation":[-0.058639612048864365,-0.060462724417448044,-0.9961023330688477,0.026187997311353683],"scale":[0.9999999403953552,1.0,1.0000001192092896],"translation":[4.6566128730773926e-09,-1.0244548320770264e-08,-0.15510158240795135]},{"children":[24],"name":"metarig_shoulder.R","rotation":[0.5096712112426758,0.09138135612010956,0.19013553857803345,0.8341062068939209],"scale":[0.9999999403953552,0.9999998807907104,0.9999999403953552],"translation":[-0.05959999933838844,-0.0661788359284401,-0.17269638180732727]},{"children":[25],"name":"metarig_front_thigh.R","rotation":[0.30126088857650757,-0.21359087526798248,-0.056702855974435806,0.9275806546211243],"translation":[-0.03320711851119995,0.03508501872420311,-0.18681155145168304]},{"children":[26],"name":"metarig_front_shin.R","rotation":[-0.08050036430358887,0.031369779258966446,-0.02341720648109913,0.9959855675697327],"translation":[2.3283064365386963e-09,-4.6609784476459026e-08,-0.2625332176685333]},{"children":[27],"name":"metarig_front_foot.R","rotation":[-0.015955010429024696,0.029220618307590485,0.036428023129701614,0.9987815618515015],"translation":[-1.1175870895385742e-08,-1.0710209608078003e-08,-0.18515503406524658]},{"name":"metarig_front_toe.R","rotation":[-0.051270678639411926,0.0550655759871006,0.9969910383224487,0.018655020743608475],"scale":[1.0,1.0,1.0000001192092896],"translation":[-1.6763806343078613e-08,-7.450580596923828e-09,-0.15318430960178375]},{"name":"metarig_breast.L","rotation":[0.3850124776363373,-0.013705078512430191,-0.005909061059355736,0.9227907061576843],"scale":[0.9999999403953552,0.9999998807907104,0.9999999403953552],"translation":[0.03400000184774399,0.1367337554693222,-0.05005446821451187]},{"name":"metarig_breast.R","rotation":[0.38858383893966675,-0.014092152006924152,-0.006075974553823471,0.9212855696678162],"scale":[1.0,1.0,0.9999999403953552],"translation":[-0.03400000184774399,0.1367337554693222,-0.05005446821451187]},{"name":"metarig_pelvis.L","rotation":[-0.2854567766189575,0.23702606558799744,0.8388347029685974,0.39835843443870544],"scale":[0.9999999403953552,0.9999999403953552,1.000000238418579],"translation":[1.2264687043739286e-08,0.14029167592525482,0.19181089103221893]},{"name":"metarig_pelvis.R","rotation":[-0.2854568064212799,-0.23702609539031982,-0.8388348817825317,0.3983582854270935],"scale":[1.0,1.0,1.0000003576278687],"translation":[1.2264687043739286e-08,0.14029167592525482,0.19181089103221893]},{"children":[33],"name":"metarig_thigh.L","rotation":[0.627622663974762,-0.006689661182463169,0.006076794117689133,0.7784652709960938],"scale":[0.9999999403953552,0.9999999403953552,0.9999999403953552],"translation":[0.1568536013364792,0.10767897218465805,0.14219258725643158]},{"children":[34],"name":"metarig_shin.L","rotation":[0.014638942666351795,-0.03202998638153076,0.019887510687112808,0.9991818070411682],"scale":[1.0,0.9999999403953552,1.0],"translation":[5.471520125865936e-09,1.6530975699424744e-08,-0.2112913727760315]},{"children":[35],"name":"metarig_foot.L","rotation":[-0.09876120090484619,-0.025637784972786903,-0.02233535796403885,0.9945300817489624],"translation":[-5.587935447692871e-09,1.5832483768463135e-08,-0.2130616009235382]},{"name":"metarig_toe.L","rotation":[0.03124810941517353,-0.0863577276468277,-0.9948375821113586,0.04317694157361984],"scale":[0.9999999403953552,0.9999998807907104,0.9999998211860657],"translation":[-1.862645149230957e-09,-3.14321368932724e-09,-0.15354904532432556]},{"children":[37],"name":"metarig_thigh.R","rotation":[0.6279728412628174,0.0029625678434967995,-0.002769641811028123,0.7782246470451355],"translation":[-0.13105317950248718,0.10767900198698044,0.14219258725643158]},{"children":[38],"name":"metarig_shin.R","rotation":[0.01463762205094099,0.037861648947000504,-0.024395272135734558,0.9988779425621033],"scale":[0.9999999403953552,0.9999998807907104,0.9999998211860657],"translation":[1.9426806829869747e-08,-2.9569491744041443e-08,-0.21057751774787903]},{"children":[39],"name":"metarig_foot.R","rotation":[-0.1023777425289154,0.02163226157426834,0.017832661047577858,0.9943504929542542],"scale":[1.0,1.0,1.0000001192092896],"translation":[1.862645149230957e-09,-3.073364496231079e-08,-0.21477600932121277]},{"name":"metarig_toe.R","rotation":[0.023451222106814384,0.08179596066474915,0.9958618879318237,0.03191852942109108],"scale":[1.0,1.0000001192092896,1.0],"translation":[2.7939677238464355e-09,1.6385456547141075e-08,-0.14975237846374512]}],"samplers":[{}],"scene":0,"scenes":[{"extensions":{"S8S_v3d_scene_data":{"aaMethod":"AUTO","iblEnvironmentMode":"PMREM","physicallyCorrectLights":true,"pmremMaxTileSize":512,"shadowMap":{"esmDistanceScale":1.0,"renderReverseSided":false,"renderSingleSided":true,"type":"PCFPOISSON"},"toneMapping":{"type":"filmicBlender"},"worldMaterial":2}},"extras":{"animFrameRate":24,"coordSystem":"Z_UP_RIGHT"},"name":"Scene","nodes":[0,1,2,3]}],"skins":[{"inverseBindMatrices":14,"joints":[6,7,8,9,10,11,12,13,14,15,16,17,18,19,20,21,22,23,24,25,26,27,28,29,30,31,32,33,34,35,36,37,38,39,2],"skeleton":2}],"textures":[{"extensions":{"S8S_v3d_texture_data":{"colorSpace":"srgb"}},"name":"TachitaColor.003","sampler":0,"source":0}]}
